Patient4_TMGait_0pt7_01_left_20_GRF.mot
version=1
nRows=39
nColumns=19
inDegrees=no
endheader
time	F1x	F1y	F1z	M1x	M1y	M1z	F2x	F2y	F2z	M2x	M2y	M2z	EC1x	EC1y	EC1z	EC2x	EC2y	EC2z
22.96	-2.5279	14.874	4.0518	-3.9838	-5.9278	15.7393	-49.5588	704.2717	-66.3528	276.7932	92.0219	808.3397	-0.0592	0.0182	-0.0073	-0.0462	0.0165	0.9585
22.9714	-1.7193	11.0562	2.7194	-3.0293	-4.0034	11.8508	-43.9423	714.6872	-66.7481	280.5971	90.9419	816.559	-0.0592	0.0182	-0.0073	-0.0462	0.0165	0.9585
22.9829	-1.0125	7.8488	1.6066	-2.2272	-2.3792	8.5737	-38.1593	726.3408	-66.1975	285.3954	88.6817	824.8441	-0.0592	0.0182	-0.0073	-0.0462	0.0165	0.9585
22.9943	-0.44636	5.4261	0.76822	-1.6232	-1.1453	6.1064	-32.3757	739.1436	-64.727	291.2003	85.2736	833.1547	-0.0592	0.0182	-0.0073	-0.0462	0.0165	0.9585
23.0057	-0.054577	3.803	0.20946	-1.2205	-0.31668	4.4807	-26.6606	753.1396	-62.4549	297.9785	80.857	841.7071	-0.0592	0.0182	-0.0073	-0.0462	0.0165	0.9585
23.0171	0.18905	2.8484	-0.12467	-0.98833	0.17731	3.5405	-21.1005	768.2026	-59.6624	305.5549	75.7621	850.6234	-0.0592	0.0182	-0.0073	-0.0462	0.0165	0.9585
23.0286	0.28744	2.3825	-0.27623	-0.87979	0.39428	3.1016	-15.7611	783.7758	-56.6955	313.5462	70.3958	859.5869	-0.0592	0.0182	-0.0073	-0.0462	0.0165	0.9585
23.04	0.27793	2.2182	-0.30884	-0.84602	0.42265	2.9424	-10.7683	798.8227	-53.9169	321.3697	65.204	867.7916	-0.0592	0.0182	-0.0073	-0.0462	0.0165	0.9585
23.0514	0.16635	2.1657	-0.2527	-0.83389	0.30551	2.8672	-6.1939	811.9846	-51.6259	328.3327	60.5494	874.0577	-0.0592	0.0182	-0.0073	-0.0462	0.0165	0.9585
23.0629	-0.019749	2.0457	-0.1442	-0.79164	0.097415	2.6656	-2.1169	821.874	-49.9724	333.761	56.6398	877.16	-0.0592	0.0182	-0.0073	-0.0462	0.0165	0.9585
23.0743	-0.27519	1.6842	-0.0079505	-0.6649	-0.16551	2.147	1.4153	827.2737	-48.9885	337.0925	53.5549	875.9954	-0.0592	0.0182	-0.0073	-0.0462	0.0165	0.9585
23.0857	-0.57226	0.90901	0.14031	-0.39927	-0.44908	1.1089	4.3778	827.3624	-48.5642	337.9626	51.2211	869.8407	-0.0592	0.0182	-0.0073	-0.0462	0.0165	0.9585
23.0971	-0.87613	-0.38647	0.26609	0.041535	-0.6997	-0.57151	6.8469	821.7374	-48.5686	336.2149	49.5054	858.3497	-0.0592	0.0182	-0.0073	-0.0462	0.0165	0.9585
23.1086	-1.123	-2.2739	0.35793	0.67884	-0.87513	-2.9707	8.9155	810.4993	-48.8351	331.9155	48.2251	841.6578	-0.0592	0.0182	-0.0073	-0.0462	0.0165	0.9585
23.12	-1.2163	-4.692	0.37105	1.4909	-0.89668	-6.0154	10.7275	794.2226	-49.2735	325.3358	47.2566	820.3455	-0.0592	0.0182	-0.0073	-0.0462	0.0165	0.9585
23.1314	-1.0119	-7.4279	0.28708	2.4065	-0.69206	-9.4443	12.3737	773.9735	-49.837	316.9536	46.528	795.4923	-0.0592	0.0182	-0.0073	-0.0462	0.0165	0.9585
23.1429	-0.32608	-10.004	0.042531	3.2602	-0.12961	-12.6744	13.9797	751.2834	-50.5483	307.4326	46.0245	768.6028	-0.0592	0.0182	-0.0073	-0.0462	0.0165	0.9585
23.1543	1.0589	-11.6121	-0.39584	3.7731	0.90824	-14.6963	15.6069	727.9632	-51.4659	297.5476	45.778	741.4711	-0.0592	0.0182	-0.0073	-0.0462	0.0165	0.9585
23.1657	3.3654	-10.9832	-1.0871	3.5141	2.564	-13.9408	17.3337	705.8464	-52.644	288.0801	45.8149	715.8849	-0.0592	0.0182	-0.0073	-0.0462	0.0165	0.9585
23.1771	6.7801	-6.3405	-2.0496	1.8872	4.9211	-8.226	19.1725	686.4906	-54.1022	279.6898	46.1467	693.3571	-0.0592	0.0182	-0.0073	-0.0462	0.0165	0.9585
23.1886	11.3505	4.5656	-3.2658	-1.8613	7.9697	5.2221	21.154	670.778	-55.7852	272.7636	46.7007	674.7074	-0.0592	0.0182	-0.0073	-0.0462	0.0165	0.9585
23.2	16.8757	24.2594	-4.6246	-8.5712	11.5021	29.5229	23.277	658.7695	-57.5575	267.3429	47.3399	659.9757	-0.0592	0.0182	-0.0073	-0.0462	0.0165	0.9585
23.2114	22.7185	55.1239	-5.8927	-19.0256	15.0105	67.6428	25.5127	649.5432	-59.1925	263.078	47.8534	648.2118	-0.0592	0.0182	-0.0073	-0.0462	0.0165	0.9585
23.2229	27.6344	98.665	-6.6695	-33.6989	17.571	121.4725	27.7698	641.3866	-60.3998	259.291	47.9924	637.7421	-0.0592	0.0182	-0.0073	-0.0462	0.0165	0.9585
23.2343	29.5575	154.3942	-6.3209	-52.3822	17.7024	190.4728	29.9495	631.9748	-60.8523	255.0632	47.4797	626.2801	-0.0592	0.0182	-0.0073	-0.0462	0.0165	0.9585
23.2457	26.2201	219.0557	-4.0208	-73.9261	13.6578	270.7093	31.8974	618.8116	-60.2472	249.4031	46.0785	611.4017	-0.0592	0.0182	-0.0073	-0.0462	0.0165	0.9585
23.2571	17.0731	286.9318	0.90205	-96.3569	4.463	355.127	33.4982	599.6574	-58.3442	241.427	43.6056	590.9204	-0.0592	0.0182	-0.0073	-0.0462	0.0165	0.9585
23.2686	4.5831	351.2306	8.7999	-117.3878	-9.4114	435.0778	34.5908	572.8977	-55.0959	230.4978	40.0772	563.282	-0.0592	0.0182	-0.0073	-0.0462	0.0165	0.9585
23.28	-8.5176	407.3377	18.9388	-135.5443	-26.0804	504.3582	35.0761	537.7568	-50.6881	216.3007	35.7118	527.7063	-0.0592	0.0182	-0.0073	-0.0462	0.0165	0.9585
23.2914	-20.6028	455.2374	29.7824	-150.9125	-43.1174	562.5522	34.7924	494.3805	-45.4929	198.8682	30.9122	484.3452	-0.0592	0.0182	-0.0073	-0.0462	0.0165	0.9585
23.3029	-30.8398	497.6881	40.0972	-164.5079	-58.7436	612.9253	33.6415	443.7372	-39.9517	178.5589	26.1218	434.1153	-0.0592	0.0182	-0.0073	-0.0462	0.0165	0.9585
23.3143	-38.9083	537.6439	48.9776	-177.3921	-71.7738	659.195	31.4867	387.6131	-34.4236	156.0539	21.711	378.7637	-0.0592	0.0182	-0.0073	-0.0462	0.0165	0.9585
23.3257	-44.7332	576.6781	55.9713	-190.1342	-81.68	703.4495	28.2516	328.3803	-29.1255	132.2897	17.9049	320.5939	-0.0592	0.0182	-0.0073	-0.0462	0.0165	0.9585
23.3371	-48.4253	614.9362	61.1414	-202.7807	-88.607	745.9308	23.9383	268.9316	-24.1846	108.4127	14.8192	262.4331	-0.0592	0.0182	-0.0073	-0.0462	0.0165	0.9585
23.3486	-50.0909	651.7949	64.8413	-215.0852	-93.0651	785.9447	18.7966	212.3045	-19.7018	85.6393	12.4646	207.1956	-0.0592	0.0182	-0.0073	-0.0462	0.0165	0.9585
23.36	-49.9353	686.4479	67.588	-226.7227	-95.7659	822.6497	13.2905	161.236	-15.7388	65.0696	10.7229	157.5117	-0.0592	0.0182	-0.0073	-0.0462	0.0165	0.9585
23.3714	-48.2893	718.1253	69.701	-237.3924	-97.232	855.2291	8.1078	117.5977	-12.3247	47.4641	9.3687	115.1246	-0.0592	0.0182	-0.0073	-0.0462	0.0165	0.9585
23.3829	-45.5137	745.975	71.447	-246.7748	-97.9034	882.8547	3.7799	82.0947	-9.4391	33.1211	8.1744	80.6747	-0.0592	0.0182	-0.0073	-0.0462	0.0165	0.9585
23.3943	-41.9832	769.0452	72.9244	-254.5376	-98.0249	904.5198	0.62046	54.4671	-7.0137	21.9511	6.9679	53.8573	-0.0592	0.0182	-0.0073	-0.0462	0.0165	0.9585
